<?xml version="1.0" encoding="UTF-8" standalone="no"?>
<!-- Created with Vectornator (http://vectornator.io/) -->

<svg
   height="1022.4732"
   stroke-miterlimit="10"
   style="clip-rule:evenodd;fill-rule:nonzero;stroke-linecap:round;stroke-linejoin:round"
   version="1.1"
   viewBox="0 0 1024 1022.4732"
   width="1024"
   xml:space="preserve"
   id="svg3"
   xmlns="http://www.w3.org/2000/svg"
   xmlns:svg="http://www.w3.org/2000/svg"
   xmlns:vectornator="http://vectornator.io">
<defs
   id="defs1" />
<clipPath
   id="ArtboardFrame">
<rect
   height="1024"
   width="1024"
   x="0"
   y="0"
   id="rect1" />
</clipPath>
<g
   clip-path="url(#ArtboardFrame)"
   id="Layer-1"
   vectornator:layerName="Layer 1"
   style="opacity:1"
   transform="translate(0,-1.52681)">
<path
   d="M 511.153,1.52681 C 227.05,1.52681 -3.24359,230.478 -3.24359,512.842 c 0,282.428 230.29359,511.348 514.39659,511.348 284.05,0 514.367,-228.92 514.367,-511.348 C 1025.52,230.478 795.203,1.52681 511.153,1.52681 Z m 0,941.54519 c -239.045,0 -432.807,-192.581 -432.807,-430.23 0,-237.585 193.762,-430.1981 432.807,-430.1981 239.024,0 432.775,192.6131 432.775,430.1981 0,237.649 -193.762,430.23 -432.775,430.23 z"
   fill="#5ec9cc"
   fill-rule="nonzero"
   opacity="1"
   stroke="none"
   vectornator:layerName="path"
   id="path1"
   style="fill:#baf3f3;fill-opacity:1;fill-rule:nonzero" />
<path
   d="m 833.463,525.406 0.226,-0.226 v -0.032 c 6.733,-6.959 6.776,-17.89 -0.032,-24.591 L 581.156,249.56 c -3.382,-3.383 -7.86,-5.133 -12.338,-5.133 -4.521,0 -8.999,1.75 -12.403,5.133 l -0.29,0.333 c -3.307,3.275 -5.143,7.656 -5.143,12.306 v 69.445 c 0,4.606 1.836,9.031 5.143,12.263 L 725.984,512.842 556.125,681.766 c -3.307,3.275 -5.143,7.699 -5.143,12.306 v 69.477 c 0,4.531 1.836,9.041 5.143,12.274 l 0.29,0.333 c 3.275,3.232 7.732,5.09 12.403,5.09 4.639,0 9.063,-1.858 12.338,-5.09 z"
   fill="#5ec9cc"
   fill-rule="nonzero"
   opacity="1"
   stroke="none"
   vectornator:layerName="path 1"
   id="path2"
   style="fill:#baf3f3;fill-opacity:1" />
<path
   d="m 194.91,525.406 -0.204,-0.226 v -0.032 c -6.733,-6.959 -6.733,-17.89 0,-24.591 L 447.207,249.56 c 3.447,-3.383 7.924,-5.133 12.381,-5.133 4.51,0 8.956,1.75 12.37,5.133 l 0.344,0.333 c 3.286,3.275 5.154,7.656 5.154,12.306 v 69.445 c 0,4.606 -1.868,9.031 -5.154,12.263 L 302.379,512.842 472.302,681.766 c 3.286,3.275 5.154,7.699 5.154,12.306 v 69.477 c 0,4.531 -1.868,9.041 -5.154,12.274 l -0.344,0.333 c -3.243,3.232 -7.688,5.09 -12.37,5.09 -4.628,0 -9.074,-1.858 -12.381,-5.09 z"
   fill="#5ec9cc"
   fill-rule="nonzero"
   opacity="1"
   stroke="none"
   vectornator:layerName="path 2"
   id="path3"
   style="fill:#baf3f3;fill-opacity:1" />
</g>
</svg>
